<svg width="23" height="23" viewBox="0 0 23 23" fill="none" xmlns="http://www.w3.org/2000/svg">
<g id="Group 1824">
<path id="Vector (Stroke)" fill-rule="evenodd" clip-rule="evenodd" d="M11.5 2.3C6.41898 2.3 2.3 6.41898 2.3 11.5C2.3 16.5811 6.41898 20.7 11.5 20.7C16.5811 20.7 20.7 16.5811 20.7 11.5C20.7 6.41898 16.5811 2.3 11.5 2.3ZM0 11.5C0 5.14873 5.14873 0 11.5 0C17.8513 0 23 5.14873 23 11.5C23 17.8513 17.8513 23 11.5 23C5.14873 23 0 17.8513 0 11.5Z" fill="#FF9800"/>
<path id="Vector (Stroke)_2" fill-rule="evenodd" clip-rule="evenodd" d="M11.4998 6.27246C12.0772 6.27246 12.5453 6.74053 12.5453 7.31792V12.5452C12.5453 13.1226 12.0772 13.5906 11.4998 13.5906C10.9224 13.5906 10.4543 13.1226 10.4543 12.5452V7.31792C10.4543 6.74053 10.9224 6.27246 11.4998 6.27246Z" fill="#FF9800"/>
<path id="Vector (Stroke)_3" fill-rule="evenodd" clip-rule="evenodd" d="M11.4998 14.6362C12.0772 14.6362 12.5453 15.1017 12.5453 15.6759V15.6875C12.5453 16.2617 12.0772 16.7271 11.4998 16.7271C10.9224 16.7271 10.4543 16.2617 10.4543 15.6875V15.6759C10.4543 15.1017 10.9224 14.6362 11.4998 14.6362Z" fill="#FF9800"/>
</g>
</svg>
