<svg width="24" height="31" viewBox="0 0 24 31" fill="none" xmlns="http://www.w3.org/2000/svg">
<mask id="mask0_2044_328" style="mask-type:alpha" maskUnits="userSpaceOnUse" x="0" y="0" width="24" height="31">
<rect x="0.79248" y="0.315887" width="23.1694" height="30.1053" rx="11.5847" fill="#D9D9D9"/>
</mask>
<g mask="url(#mask0_2044_328)">
<path d="M10.0803 20.515C8.10318 20.515 6.42884 19.7636 5.05732 18.2609C3.68577 16.7581 3 14.9235 3 12.7572C3 10.5909 3.68577 8.75637 5.05732 7.2536C6.42884 5.75085 8.10318 4.99948 10.0803 4.99948C12.0575 4.99948 13.7318 5.75085 15.1034 7.2536C16.4749 8.75637 17.1607 10.5909 17.1607 12.7572C17.1607 13.6631 17.0219 14.5283 16.7443 15.3529C16.2907 16.7003 16.2851 18.2769 17.202 19.3634L19.7539 22.387C19.9142 22.5626 19.9962 22.7834 19.9999 23.0493C20.0036 23.3152 19.9216 23.5401 19.7539 23.7238C19.5861 23.9076 19.3828 23.9995 19.1438 23.9995C18.9048 23.9995 18.7015 23.9076 18.5338 23.7238L15.9341 20.6436C15.1027 19.6585 13.6156 19.5991 12.4159 20.071C11.6634 20.367 10.8848 20.515 10.0803 20.515ZM10.0803 18.6122C11.5721 18.6122 12.8357 18.045 13.871 16.9106C14.9063 15.7762 15.424 14.3917 15.424 12.7572C15.424 11.1227 14.9063 9.73827 13.871 8.60387C12.8357 7.46947 11.5721 6.90227 10.0803 6.90227C8.58855 6.90227 7.32499 7.46947 6.28965 8.60387C5.25433 9.73827 4.73667 11.1227 4.73667 12.7572C4.73667 14.3917 5.25433 15.7762 6.28965 16.9106C7.32499 18.045 8.58855 18.6122 10.0803 18.6122Z" fill="#025dcb"/>
</g>
</svg>
